<mxfile host="app.diagrams.net" agent="Mozilla/5.0 (Windows NT 10.0; Win64; x64) AppleWebKit/537.36 (KHTML, like Gecko) Chrome/136.0.0.0 Safari/537.36" version="27.1.6">
  <diagram name="Page-1" id="0JvqcCsnhCXNbBKoh-t4">
    <mxGraphModel dx="388" dy="661" grid="1" gridSize="10" guides="1" tooltips="1" connect="1" arrows="1" fold="1" page="1" pageScale="1" pageWidth="827" pageHeight="1169" math="0" shadow="0">
      <root>
        <mxCell id="0" />
        <mxCell id="1" parent="0" />
        <mxCell id="m4vNWrdkUcIOSAdlPKEp-1" value="&lt;font style=&quot;font-size: 14px;&quot;&gt;Администрирование&lt;/font&gt;" style="shape=folder;fontStyle=1;tabWidth=80;tabHeight=30;tabPosition=left;html=1;boundedLbl=1;whiteSpace=wrap;verticalAlign=top;fontSize=13;spacing=6;" vertex="1" parent="1">
          <mxGeometry x="40" y="40" width="330" height="400" as="geometry" />
        </mxCell>
        <mxCell id="m4vNWrdkUcIOSAdlPKEp-2" value="Управление пользователями" style="shape=folder;fontStyle=1;tabWidth=80;tabHeight=30;tabPosition=left;html=1;boundedLbl=1;whiteSpace=wrap;" vertex="1" parent="1">
          <mxGeometry x="50" y="120" width="150" height="60" as="geometry" />
        </mxCell>
        <mxCell id="m4vNWrdkUcIOSAdlPKEp-3" value="Управление выставками" style="shape=folder;fontStyle=1;tabWidth=80;tabHeight=30;tabPosition=left;html=1;boundedLbl=1;whiteSpace=wrap;" vertex="1" parent="1">
          <mxGeometry x="210" y="120" width="150" height="60" as="geometry" />
        </mxCell>
        <mxCell id="m4vNWrdkUcIOSAdlPKEp-5" value="Управление картинами" style="shape=folder;fontStyle=1;tabWidth=80;tabHeight=30;tabPosition=left;html=1;boundedLbl=1;whiteSpace=wrap;" vertex="1" parent="1">
          <mxGeometry x="50" y="200" width="150" height="60" as="geometry" />
        </mxCell>
        <mxCell id="m4vNWrdkUcIOSAdlPKEp-6" value="Управление авторами" style="shape=folder;fontStyle=1;tabWidth=80;tabHeight=30;tabPosition=left;html=1;boundedLbl=1;whiteSpace=wrap;" vertex="1" parent="1">
          <mxGeometry x="210" y="200" width="150" height="60" as="geometry" />
        </mxCell>
        <mxCell id="m4vNWrdkUcIOSAdlPKEp-7" value="Управление билетами" style="shape=folder;fontStyle=1;tabWidth=80;tabHeight=30;tabPosition=left;html=1;boundedLbl=1;whiteSpace=wrap;" vertex="1" parent="1">
          <mxGeometry x="50" y="280" width="150" height="60" as="geometry" />
        </mxCell>
        <mxCell id="m4vNWrdkUcIOSAdlPKEp-8" value="Управление стилями" style="shape=folder;fontStyle=1;tabWidth=80;tabHeight=30;tabPosition=left;html=1;boundedLbl=1;whiteSpace=wrap;" vertex="1" parent="1">
          <mxGeometry x="210" y="280" width="150" height="60" as="geometry" />
        </mxCell>
        <mxCell id="m4vNWrdkUcIOSAdlPKEp-9" value="Управление жанрами" style="shape=folder;fontStyle=1;tabWidth=80;tabHeight=30;tabPosition=left;html=1;boundedLbl=1;whiteSpace=wrap;" vertex="1" parent="1">
          <mxGeometry x="50" y="360" width="150" height="60" as="geometry" />
        </mxCell>
        <mxCell id="m4vNWrdkUcIOSAdlPKEp-11" style="edgeStyle=orthogonalEdgeStyle;rounded=0;orthogonalLoop=1;jettySize=auto;html=1;exitX=0.5;exitY=1;exitDx=0;exitDy=0;exitPerimeter=0;" edge="1" parent="1" source="m4vNWrdkUcIOSAdlPKEp-1" target="m4vNWrdkUcIOSAdlPKEp-1">
          <mxGeometry relative="1" as="geometry" />
        </mxCell>
        <mxCell id="m4vNWrdkUcIOSAdlPKEp-12" value="&lt;font style=&quot;font-size: 14px;&quot;&gt;Мониторинг&lt;/font&gt;" style="shape=folder;fontStyle=1;tabWidth=80;tabHeight=30;tabPosition=left;html=1;boundedLbl=1;whiteSpace=wrap;verticalAlign=top;spacing=6;" vertex="1" parent="1">
          <mxGeometry x="40" y="480" width="330" height="230" as="geometry" />
        </mxCell>
        <mxCell id="m4vNWrdkUcIOSAdlPKEp-13" value="Просмотр выставок" style="shape=folder;fontStyle=1;tabWidth=80;tabHeight=30;tabPosition=left;html=1;boundedLbl=1;whiteSpace=wrap;" vertex="1" parent="1">
          <mxGeometry x="50" y="550" width="150" height="60" as="geometry" />
        </mxCell>
        <mxCell id="m4vNWrdkUcIOSAdlPKEp-14" value="Бронирование билетов" style="shape=folder;fontStyle=1;tabWidth=80;tabHeight=30;tabPosition=left;html=1;boundedLbl=1;whiteSpace=wrap;" vertex="1" parent="1">
          <mxGeometry x="210" y="630" width="150" height="60" as="geometry" />
        </mxCell>
        <mxCell id="m4vNWrdkUcIOSAdlPKEp-15" value="Просмотр статистики продаж" style="shape=folder;fontStyle=1;tabWidth=80;tabHeight=30;tabPosition=left;html=1;boundedLbl=1;whiteSpace=wrap;" vertex="1" parent="1">
          <mxGeometry x="50" y="630" width="150" height="60" as="geometry" />
        </mxCell>
        <mxCell id="m4vNWrdkUcIOSAdlPKEp-16" value="Просмотр сведений" style="shape=folder;fontStyle=1;tabWidth=80;tabHeight=30;tabPosition=left;html=1;boundedLbl=1;whiteSpace=wrap;" vertex="1" parent="1">
          <mxGeometry x="210" y="550" width="150" height="60" as="geometry" />
        </mxCell>
        <mxCell id="m4vNWrdkUcIOSAdlPKEp-17" value="Хранилище данных" style="shape=folder;fontStyle=1;tabWidth=80;tabHeight=30;tabPosition=left;html=1;boundedLbl=1;whiteSpace=wrap;verticalAlign=top;fontSize=14;spacing=6;" vertex="1" parent="1">
          <mxGeometry x="420" y="40" width="380" height="400" as="geometry" />
        </mxCell>
        <mxCell id="m4vNWrdkUcIOSAdlPKEp-18" value="БД &quot;Галерея&quot;" style="shape=folder;fontStyle=1;tabWidth=80;tabHeight=30;tabPosition=left;html=1;boundedLbl=1;whiteSpace=wrap;" vertex="1" parent="1">
          <mxGeometry x="560" y="110" width="100" height="60" as="geometry" />
        </mxCell>
        <mxCell id="m4vNWrdkUcIOSAdlPKEp-19" value="Выставки" style="shape=folder;fontStyle=1;tabWidth=80;tabHeight=30;tabPosition=left;html=1;boundedLbl=1;whiteSpace=wrap;" vertex="1" parent="1">
          <mxGeometry x="440" y="190" width="100" height="60" as="geometry" />
        </mxCell>
        <mxCell id="m4vNWrdkUcIOSAdlPKEp-21" value="Картины" style="shape=folder;fontStyle=1;tabWidth=80;tabHeight=30;tabPosition=left;html=1;boundedLbl=1;whiteSpace=wrap;" vertex="1" parent="1">
          <mxGeometry x="440" y="270" width="100" height="60" as="geometry" />
        </mxCell>
        <mxCell id="m4vNWrdkUcIOSAdlPKEp-22" value="Билеты" style="shape=folder;fontStyle=1;tabWidth=80;tabHeight=30;tabPosition=left;html=1;boundedLbl=1;whiteSpace=wrap;" vertex="1" parent="1">
          <mxGeometry x="560" y="350" width="100" height="60" as="geometry" />
        </mxCell>
        <mxCell id="m4vNWrdkUcIOSAdlPKEp-23" value="Пользователи" style="shape=folder;fontStyle=1;tabWidth=80;tabHeight=30;tabPosition=left;html=1;boundedLbl=1;whiteSpace=wrap;" vertex="1" parent="1">
          <mxGeometry x="560" y="190" width="100" height="60" as="geometry" />
        </mxCell>
        <mxCell id="m4vNWrdkUcIOSAdlPKEp-24" value="Авторы" style="shape=folder;fontStyle=1;tabWidth=80;tabHeight=30;tabPosition=left;html=1;boundedLbl=1;whiteSpace=wrap;" vertex="1" parent="1">
          <mxGeometry x="560" y="270" width="100" height="60" as="geometry" />
        </mxCell>
        <mxCell id="m4vNWrdkUcIOSAdlPKEp-25" value="Стили" style="shape=folder;fontStyle=1;tabWidth=80;tabHeight=30;tabPosition=left;html=1;boundedLbl=1;whiteSpace=wrap;" vertex="1" parent="1">
          <mxGeometry x="680" y="270" width="100" height="60" as="geometry" />
        </mxCell>
        <mxCell id="m4vNWrdkUcIOSAdlPKEp-26" value="Жанры" style="shape=folder;fontStyle=1;tabWidth=80;tabHeight=30;tabPosition=left;html=1;boundedLbl=1;whiteSpace=wrap;" vertex="1" parent="1">
          <mxGeometry x="680" y="190" width="100" height="60" as="geometry" />
        </mxCell>
        <mxCell id="m4vNWrdkUcIOSAdlPKEp-29" value="" style="html=1;verticalAlign=bottom;labelBackgroundColor=none;endArrow=open;endFill=0;dashed=1;rounded=0;exitX=0.996;exitY=0.164;exitDx=0;exitDy=0;exitPerimeter=0;" edge="1" parent="1" source="m4vNWrdkUcIOSAdlPKEp-1" target="m4vNWrdkUcIOSAdlPKEp-18">
          <mxGeometry width="160" relative="1" as="geometry">
            <mxPoint x="360" y="120" as="sourcePoint" />
            <mxPoint x="520" y="120" as="targetPoint" />
          </mxGeometry>
        </mxCell>
        <mxCell id="m4vNWrdkUcIOSAdlPKEp-44" value="Use" style="edgeLabel;html=1;align=center;verticalAlign=middle;resizable=0;points=[];" vertex="1" connectable="0" parent="m4vNWrdkUcIOSAdlPKEp-29">
          <mxGeometry x="-0.5707" y="-2" relative="1" as="geometry">
            <mxPoint as="offset" />
          </mxGeometry>
        </mxCell>
        <mxCell id="m4vNWrdkUcIOSAdlPKEp-36" value="" style="curved=1;endArrow=classic;html=1;rounded=0;entryX=0;entryY=0;entryDx=0;entryDy=37.5;entryPerimeter=0;shadow=0;dashed=1;exitX=0;exitY=0;exitDx=80;exitDy=30;exitPerimeter=0;" edge="1" parent="1" source="m4vNWrdkUcIOSAdlPKEp-13" target="m4vNWrdkUcIOSAdlPKEp-19">
          <mxGeometry width="50" height="50" relative="1" as="geometry">
            <mxPoint x="143" y="550" as="sourcePoint" />
            <mxPoint x="380" y="480" as="targetPoint" />
            <Array as="points">
              <mxPoint x="190" y="470" />
              <mxPoint x="290" y="380" />
              <mxPoint x="380" y="350" />
              <mxPoint x="390" y="240" />
            </Array>
          </mxGeometry>
        </mxCell>
        <mxCell id="m4vNWrdkUcIOSAdlPKEp-37" value="Use" style="edgeLabel;html=1;align=center;verticalAlign=middle;resizable=0;points=[];" vertex="1" connectable="0" parent="m4vNWrdkUcIOSAdlPKEp-36">
          <mxGeometry x="-0.0091" relative="1" as="geometry">
            <mxPoint as="offset" />
          </mxGeometry>
        </mxCell>
        <mxCell id="m4vNWrdkUcIOSAdlPKEp-38" value="" style="curved=1;endArrow=classic;html=1;rounded=0;exitX=0.63;exitY=0.567;exitDx=0;exitDy=0;exitPerimeter=0;entryX=0.137;entryY=1.053;entryDx=0;entryDy=0;entryPerimeter=0;dashed=1;" edge="1" parent="1" source="m4vNWrdkUcIOSAdlPKEp-16" target="m4vNWrdkUcIOSAdlPKEp-21">
          <mxGeometry width="50" height="50" relative="1" as="geometry">
            <mxPoint x="420" y="530" as="sourcePoint" />
            <mxPoint x="470" y="480" as="targetPoint" />
            <Array as="points">
              <mxPoint x="380" y="420" />
            </Array>
          </mxGeometry>
        </mxCell>
        <mxCell id="m4vNWrdkUcIOSAdlPKEp-39" value="Use" style="edgeLabel;html=1;align=center;verticalAlign=middle;resizable=0;points=[];" vertex="1" connectable="0" parent="m4vNWrdkUcIOSAdlPKEp-38">
          <mxGeometry x="0.0477" y="-4" relative="1" as="geometry">
            <mxPoint as="offset" />
          </mxGeometry>
        </mxCell>
        <mxCell id="m4vNWrdkUcIOSAdlPKEp-40" value="" style="curved=1;endArrow=classic;html=1;rounded=0;exitX=0.619;exitY=0.539;exitDx=0;exitDy=0;exitPerimeter=0;entryX=-0.022;entryY=0.331;entryDx=0;entryDy=0;entryPerimeter=0;dashed=1;" edge="1" parent="1" source="m4vNWrdkUcIOSAdlPKEp-14" target="m4vNWrdkUcIOSAdlPKEp-22">
          <mxGeometry width="50" height="50" relative="1" as="geometry">
            <mxPoint x="470" y="590" as="sourcePoint" />
            <mxPoint x="520" y="540" as="targetPoint" />
            <Array as="points">
              <mxPoint x="380" y="620" />
              <mxPoint x="400" y="510" />
              <mxPoint x="500" y="380" />
            </Array>
          </mxGeometry>
        </mxCell>
        <mxCell id="m4vNWrdkUcIOSAdlPKEp-41" value="Use" style="edgeLabel;html=1;align=center;verticalAlign=middle;resizable=0;points=[];" vertex="1" connectable="0" parent="m4vNWrdkUcIOSAdlPKEp-40">
          <mxGeometry x="0.2892" y="-2" relative="1" as="geometry">
            <mxPoint as="offset" />
          </mxGeometry>
        </mxCell>
        <mxCell id="m4vNWrdkUcIOSAdlPKEp-42" value="" style="curved=1;endArrow=classic;html=1;rounded=0;exitX=0.75;exitY=1;exitDx=0;exitDy=0;exitPerimeter=0;entryX=0.25;entryY=1;entryDx=0;entryDy=0;entryPerimeter=0;dashed=1;" edge="1" parent="1" source="m4vNWrdkUcIOSAdlPKEp-15" target="m4vNWrdkUcIOSAdlPKEp-22">
          <mxGeometry width="50" height="50" relative="1" as="geometry">
            <mxPoint x="400" y="740" as="sourcePoint" />
            <mxPoint x="450" y="690" as="targetPoint" />
            <Array as="points">
              <mxPoint x="163" y="740" />
              <mxPoint x="380" y="740" />
              <mxPoint x="460" y="710" />
              <mxPoint x="500" y="630" />
            </Array>
          </mxGeometry>
        </mxCell>
        <mxCell id="m4vNWrdkUcIOSAdlPKEp-43" value="Use" style="edgeLabel;html=1;align=center;verticalAlign=middle;resizable=0;points=[];" vertex="1" connectable="0" parent="m4vNWrdkUcIOSAdlPKEp-42">
          <mxGeometry x="0.1509" y="-2" relative="1" as="geometry">
            <mxPoint as="offset" />
          </mxGeometry>
        </mxCell>
      </root>
    </mxGraphModel>
  </diagram>
</mxfile>
